# xmcd
#
# Track frame offsets:
#	150
#	12885
#	28321
#	45536
#	60974
#	75635
#	88905
#	106678
#	122867
#	133512
#	147834
#	162556
#	177788
#	192496
#	207991
#	221468
#	221870
#	235595
#	252986
#
# Disc length: 3582 seconds
#
# Revision: 1
# Processed by: cddbd v1.5.2PL0 Copyright (c) Steve Scherf et al.
# Submitted via: audiograbber 1.83.01
#
DISCID=0f0dfc13
DTITLE=Promo Only Canada - Country Radio November 1998
DYEAR=1998
DGENRE=Country
TTITLE0=Reba McEntire - Wrong Night
TTITLE1=George Fox - Survivor
TTITLE2=Alan Jackson - Right On The Money
TTITLE3=Tracy Lawrence - Ill Never Pass This Way Again
TTITLE4=Tractors The - Shortenin Bread
TTITLE5=Gary Allen - Ill Take Today
TTITLE6=Chad Brock - Ordinary Life
TTITLE7=Kinleys The - Somebodys Out There Watchiing
TTITLE8=Diamond Rio - Unbelievable
TTITLE9=Keith Harling - Write It In Stone
TTITLE10=Bill Engvall - Im A Cowboy
TTITLE11=Shannon Brown - I Wont Lie
TTITLE12=Billy Ray Cyrus - Busy Man
TTITLE13=Linda Davis - Im Yours
TTITLE14=Michael Peterson - By The Book
TTITLE15=Steve Wariner - Artist Drop
TTITLE16=Steve Wariner - Every Little Whisper
TTITLE17=Prairie Oyster - Canadian Sunrise
TTITLE18=WiIlkinsons The - Fly The Angel Song
EXTD=
EXTT0=
EXTT1=
EXTT2=
EXTT3=
EXTT4=
EXTT5=
EXTT6=
EXTT7=
EXTT8=
EXTT9=
EXTT10=
EXTT11=
EXTT12=
EXTT13=
EXTT14=
EXTT15=
EXTT16=
EXTT17=
EXTT18=
PLAYORDER=
